<svg width="1455" height="470" viewBox="0 0 1455 470" fill="none" xmlns="http://www.w3.org/2000/svg">
<g clip-path="url(#clip0_91_2251)">
<path opacity="0.19" d="M316.956 220C347.674 216.813 382.471 210.374 407.251 228.782C415.066 234.585 422.534 241.482 431.942 243.994C447.147 248.054 462.598 239.682 478.159 237.306C505.434 233.141 532.096 247.583 559.649 248.97C574.518 249.718 589.555 246.646 604.23 249.111C613.255 250.628 621.882 254.207 630.986 255.118C645.662 256.583 660.022 251.026 673.723 245.574C702.067 234.287 730.411 223.006 758.756 211.719C764.049 209.61 769.589 207.465 775.271 207.946C781.109 208.438 786.314 211.641 791.791 213.707C814.176 222.163 839.611 211.075 857.447 195.142C875.283 179.209 888.443 158.635 906.101 142.503C908.622 140.2 911.436 137.898 914.827 137.48C918.9 136.977 922.731 139.295 926.735 140.2C942.553 143.79 956.358 125.413 972.517 126.847C982.26 127.71 992.937 135.491 1000.65 129.484C1002.93 127.705 1004.29 125.031 1005.6 122.457C1018.07 97.8848 1037.49 70.7697 1065.07 71.8424C1085.51 72.6377 1101.88 89.1935 1121.68 94.3476C1126.27 134.167 1425.71 189.544 1417.96 228.782C1410.36 267.201 1435.89 305.553 1417.96 340.482C1414.76 346.698 1071.01 337.138 1064.87 340.482C1059.91 343.177 1054.05 343.454 1048.41 343.669C881.535 350.058 714.504 356.446 547.573 351.617C527.243 351.031 505.916 349.989 488.5 339.503C464.893 325.292 449.767 294.707 422.277 292.599C414.222 291.981 406.239 294.074 398.325 295.696C380.133 299.427 361.443 300.72 342.916 299.537C331.233 298.789 318.712 296.628 310.488 288.308C304.608 282.364 301.772 274.023 300.473 265.771C297.317 245.783 305.021 236.362 316.956 220Z" fill="#67092B"/>
<path d="M1323.63 125.184C1350.78 125.184 1372.8 103.205 1372.8 76.0919C1372.8 48.9792 1350.78 27 1323.63 27C1296.47 27 1274.45 48.9792 1274.45 76.0919C1274.45 103.205 1296.47 125.184 1323.63 125.184Z" fill="#FF7B4C"/>
<path d="M469.831 83.6313C474.584 80.9731 521.472 55.5429 553.831 75.2435C565.178 82.1505 562.741 87.3098 572.731 90.758C590.661 96.9534 602.92 81.8679 626.07 85.3057C635.908 86.7656 635.567 89.7691 650.012 95.3679C680.751 107.288 694.069 99.7476 727.293 110.882C736.418 113.943 754.814 120.107 754.175 124.717C753.037 132.901 695.049 114.226 627.333 136.041C595.126 146.417 577.924 160.403 544.171 158.263C526.026 157.112 503.704 151.335 501.33 150.718C473.447 143.413 474.893 138.981 455.968 134.785C421.067 127.035 407.99 140.295 382.046 128.077C368.996 121.928 356.674 111.217 358.524 106.273C361.951 97.1208 409.798 120.243 452.183 95.7917C461.413 90.4702 459.479 89.4185 469.831 83.6313Z" fill="#FDDFD4"/>
<path d="M766.827 152.005C759.327 150.357 746.308 147.615 742.513 152.989C742.303 153.282 740.941 155.28 741.528 157.253C742.618 160.916 749.489 161.251 749.41 162.831C749.342 164.291 743.483 163.7 740.867 167.425C739.216 169.78 740.59 171.397 739.552 173.987C736.842 180.747 723.367 179.863 723.126 182.516C722.974 184.169 728.021 186.822 735.28 188.094C752.12 191.035 758.011 182.553 779.306 178.911C797.849 175.74 803.101 180.512 817.42 173.992C824.784 170.638 833.841 164.615 832.86 161.528C832.394 160.053 829.716 159.54 822.347 159.231C803.667 158.446 799.872 160.843 790.486 159.686C780.512 158.451 782.603 155.479 766.827 152.005Z" fill="#FDDFD4"/>
<path d="M528.364 197.104C469.883 212.587 433.074 201.243 422.523 197.523C421.218 197.062 412.502 193.939 412.864 191.652C413.383 188.356 431.764 193.122 451.502 184.107C463.279 178.728 462.393 174.442 470.821 172.783C483.536 170.282 487.98 179.549 509.459 185.362C528.39 190.485 542.787 188.12 543.06 190.815C543.275 192.918 534.622 195.451 528.364 197.104Z" fill="#FDDFD4"/>
<path d="M381.433 72.1671C380.878 79.6078 366.129 84.1915 360.013 86.0909C322.512 97.7386 300.342 72.0258 269.922 84.8351C260.147 88.9479 264.314 90.8159 247.872 101.187C241.992 104.897 214.774 121.5 179.831 124.461C163.704 125.827 168.961 122.337 107.377 112.51C82.9693 108.617 58.8442 102.84 34.2945 99.931C13.8277 97.5031 6.63158 97.6078 2.79505 91.7525C-6.36129 77.7921 12.6013 43.7386 38.0734 25.7124C49.6511 17.513 67.0204 9.48626 134.464 11.2444C212.442 13.2799 266.332 26.0264 291.343 32.6299C321.605 40.6148 382.586 56.7049 381.433 72.1671Z" fill="#FDDFD4"/>
<path d="M1458.46 513H-1.04443V281.852C166.635 272.664 670.529 267.063 862.22 267.001C1056.34 266.938 1288.92 272.565 1458.46 281.852C1458.46 358.902 1458.46 435.951 1458.46 513Z" fill="#FF7B4C"/>
<path d="M449.589 334.443C445.9 334.925 -55.6506 335.323 -56.9713 335.636L-59.2722 462.113C-59.2722 462.113 446.675 460.716 453.814 457.869C459.789 455.488 463.845 451.611 470.759 444.918C480.266 435.725 484.275 430.67 487.273 427.693C503.841 411.252 523.757 424.213 559.146 410.797C571.399 406.15 579.765 400.52 590.519 393.278C611.793 378.952 616.563 370.192 635.017 358.66C642.753 353.825 654.75 347.347 671.338 342.282C671.338 342.282 695.28 337.546 695.762 323.178C695.762 323.178 668.875 329.206 656.27 329.2C643.675 329.195 460.192 333.062 449.589 334.443Z" fill="#67092B"/>
<path d="M440.548 339.085L440.475 338.938C440.443 339.033 440.548 339.085 440.548 339.085Z" fill="#6253FD"/>
<path d="M-15.0815 335.637C-14.355 335.464 444.092 335.266 445.456 335.043C446.571 334.86 447.932 334.66 449.59 334.444C460.193 333.062 643.675 329.195 656.275 329.201C668.88 329.206 695.767 323.178 695.767 323.178L445.456 318.645L-14.7723 318.594L-15.0815 335.637Z" fill="#FFA6A4"/>
<path d="M712.449 299.595C713.718 299.547 713.802 297.7 712.544 297.538C708.115 296.968 703.691 296.397 699.263 295.822C691.259 294.791 683.125 293.755 675.148 294.964C670.137 295.722 665.205 297.36 660.148 297.146C655.263 296.942 650.646 295.027 646.007 293.493C629.964 288.198 629.529 291.479 619.922 287.418C615.273 285.451 612.05 283.426 605.907 282.505C601.399 281.83 601.122 282.62 597.217 282.024C589.193 280.799 588.422 277.178 579.837 274.311C570.613 271.234 569.229 274.656 563.616 271.103C559.355 268.409 557.442 264.725 552.321 264.191C550.308 263.982 549.045 264.385 547.494 264.672C541.828 265.724 538.542 264.06 528.82 261.7C513.442 257.97 514.674 260.429 506.524 257.431C503.919 256.473 500.24 254.835 495.161 255.118C492.54 255.264 490.014 256.086 487.472 256.74C474.38 260.11 460.611 259.058 447.136 257.985C442.33 257.603 437.456 257.206 432.922 255.573C426.365 253.213 421.003 248.452 415.82 243.8C413.451 264.741 411.852 285.77 411.035 306.831C441.811 299.725 473.855 308.506 505.282 305.261C511.026 304.67 516.739 303.697 522.509 303.425C529.181 303.111 535.859 303.728 542.525 304.142C563.39 305.424 584.324 304.639 605.215 303.854C641.169 302.499 676.6 300.981 712.449 299.595Z" fill="#FDDFD4"/>
<path d="M411.035 306.831C411.852 285.77 413.451 264.741 415.82 243.8C406.532 264.81 384.456 306.831 370.456 306.831H411.035Z" fill="#FDDFD4"/>
<path d="M632.024 253.192C633.979 267.749 638.361 268.775 641.542 282.892C644.393 295.534 646.443 304.613 644.236 315.58C643.733 318.071 641.904 326.171 645.096 328.212C646.747 329.269 648.812 328.112 651.458 329.818C653.261 330.98 654.739 333.083 654.236 333.978C653.775 334.794 651.883 334.213 646.941 333.732C641.652 333.219 641.558 333.664 640.552 333.303C635.4 331.451 638.476 320.038 634.404 305.665C632.863 300.233 632.747 302.991 622.333 280.784C618.371 272.328 617.559 270.167 616.159 270.224C610.923 270.444 616.495 300.877 598.926 316.977C594.539 320.996 587.364 325.36 588.397 329.624C589.225 333.057 594.812 334.104 594.545 334.972C594.162 336.207 582.144 336.149 579.869 331.011C577.773 326.276 586.148 322.194 592.563 309.427C596.845 300.903 597.999 291.537 600.299 272.799C601.631 261.931 600.813 261.711 602.281 255.374C603.743 249.069 605.672 244.449 603.669 242.701C601.73 241.011 598.36 243.994 594.545 242.304C591.237 240.838 590.006 236.93 589.387 234.978C586.07 224.45 592.207 210.343 601.683 205.869C603.722 204.906 606.028 204.336 607.831 203.891C615.934 201.887 619.886 203.195 622.506 200.129C622.632 199.983 626.002 196.042 625.336 193.949C624.66 191.815 618.617 193.102 619.928 192.013C625.882 187.079 628.502 179.602 633.214 181.517C636.762 182.961 641.259 184.792 642.533 188.052C642.905 189.005 643.156 190.318 644.32 192.013C645.615 193.897 646.935 194.651 646.7 195.179C646.359 195.948 643.597 194.405 641.741 195.577C639.383 197.063 641.259 201.176 639.163 203.101C636.18 205.833 629.912 202.494 629.535 203.274C629.252 203.865 632.664 204.095 635.2 207.852C639.461 214.168 632.81 221.656 631.432 237.354C630.824 244.266 631.526 249.498 632.024 253.192Z" fill="#67092B"/>
<path d="M1436.96 322.32C1416.47 298.36 1103.5 302.263 973.031 310.07C914.246 313.586 866.252 320.2 834.313 325.37C834.313 325.37 757.514 340.722 759.406 355.855C761.219 370.365 851.619 364.002 866.415 398.537C870.173 407.307 869.077 418.761 862.851 427.499C836.53 464.42 740.49 421.953 682.717 464.08C653.896 485.099 458.247 396.934 457.728 401C449.117 468.265 737.974 665.146 821.833 677.485C922.387 692.28 1312.82 637.349 1450.23 551.5C1583.07 468.504 1465.17 355.317 1436.96 322.32Z" fill="#67092B"/>
<path d="M460.056 413.994C518.007 403.497 605.383 481.63 610.199 554.53C611.028 567.078 612.752 593.141 591.263 612.648C552.489 647.847 160.244 655.946 115.228 621.5C74.5029 590.336 -55.6812 490.261 -35.7721 446C-21.0627 413.298 432.239 419.032 460.056 413.994Z" fill="#67092B"/>
</g>
<defs>
<clipPath id="clip0_91_2251">
<rect width="1455" height="470" fill="white"/>
</clipPath>
</defs>
</svg>
